<svg width="230" height="230" viewBox="0 0 230 230" fill="none" xmlns="http://www.w3.org/2000/svg">
<g clip-path="url(#clip0_1810_2246)">
<mask id="mask0_1810_2246" style="mask-type:luminance" maskUnits="userSpaceOnUse" x="0" y="0" width="230" height="230">
<path d="M230 0H0V230H230V0Z" fill="white"/>
</mask>
<g mask="url(#mask0_1810_2246)">
<mask id="mask1_1810_2246" style="mask-type:luminance" maskUnits="userSpaceOnUse" x="0" y="0" width="230" height="230">
<path d="M230 0H0V230H230V0Z" fill="white"/>
</mask>
<g mask="url(#mask1_1810_2246)">
<path d="M114.908 210.5C167.653 210.5 210.41 167.743 210.41 114.998C210.41 62.2531 167.653 19.4961 114.908 19.4961C62.1632 19.4961 19.4062 62.2531 19.4062 114.998C19.4062 167.743 62.1632 210.5 114.908 210.5Z" fill="#F9F1EC"/>
</g>
</g>
<path d="M115 181.168C150.271 181.168 178.865 152.573 178.865 117.303C178.865 82.0322 150.271 53.4375 115 53.4375C79.7295 53.4375 51.1348 82.0322 51.1348 117.303C51.1348 152.573 79.7295 181.168 115 181.168Z" fill="#FAC8C4"/>
<path d="M115 178.867C150.271 178.867 178.865 150.272 178.865 115.002C178.865 79.7315 150.271 51.1367 115 51.1367C79.7295 51.1367 51.1348 79.7315 51.1348 115.002C51.1348 150.272 79.7295 178.867 115 178.867Z" fill="#FF1C1C"/>
<path d="M115.001 174.607C82.134 174.607 55.3965 147.87 55.3965 115.003C55.3965 82.1359 82.134 55.3984 115.001 55.3984C147.868 55.3984 174.605 82.1359 174.605 115.003C174.605 147.87 147.868 174.607 115.001 174.607ZM115.001 56.5599C82.7722 56.5599 56.558 82.7799 56.558 115.003C56.558 147.226 82.778 173.446 115.001 173.446C147.224 173.446 173.444 147.226 173.444 115.003C173.444 82.7799 147.224 56.5599 115.001 56.5599Z" fill="#F8E3E2"/>
<path d="M115.148 153.117C118.15 153.117 120.594 150.673 120.594 147.672C120.594 144.67 118.15 142.227 115.148 142.227C112.147 142.227 109.703 144.67 109.703 147.672C109.703 150.673 112.147 153.117 115.148 153.117Z" fill="white"/>
<path d="M116.916 76.2148H113.305V131.835H116.916V76.2148Z" fill="white"/>
</g>
<defs>
<clipPath id="clip0_1810_2246">
<rect width="230" height="230" fill="white"/>
</clipPath>
</defs>
</svg>
